<?xml version="1.0" encoding="UTF-8"?>
<svg xmlns="http://www.w3.org/2000/svg" width="320" height="320" viewBox="0 0 320 320">
  <defs>
    <linearGradient id="bg" x1="0" y1="0" x2="1" y2="1">
      <stop offset="0" stop-color="#02060f"/>
      <stop offset="1" stop-color="#061225"/>
    </linearGradient>
    <radialGradient id="vign" cx="50%" cy="45%" r="70%">
      <stop offset="0" stop-color="#000" stop-opacity="0"/>
      <stop offset="1" stop-color="#000" stop-opacity="0.55"/>
    </radialGradient>
    <linearGradient id="shade" x1="0" y1="0" x2="1" y2="0">
      <stop offset="0" stop-color="#000" stop-opacity="0.82"/>
      <stop offset="0.52" stop-color="#000" stop-opacity="0.34"/>
      <stop offset="1" stop-color="#000" stop-opacity="0.82"/>
    </linearGradient>
    <linearGradient id="glass" x1="0" y1="0" x2="0" y2="1">
      <stop offset="0" stop-color="#ffffff" stop-opacity="0.14"/>
      <stop offset="1" stop-color="#ffffff" stop-opacity="0.05"/>
    </linearGradient>
    <linearGradient id="spec" x1="0" y1="0" x2="1" y2="1">
      <stop offset="0" stop-color="#ffffff" stop-opacity="0.26"/>
      <stop offset="0.22" stop-color="#ffffff" stop-opacity="0.06"/>
      <stop offset="1" stop-color="#ffffff" stop-opacity="0"/>
    </linearGradient>
    <pattern id="grid" patternUnits="userSpaceOnUse" width="28" height="28">
      <path d="M28 0H0V28" fill="none" stroke="#7aa7ff" stroke-opacity="0.11" stroke-width="1"/>
    </pattern>
    <pattern id="scan" patternUnits="userSpaceOnUse" width="6" height="6">
      <rect width="6" height="6" fill="none"/>
      <rect y="0" width="6" height="1" fill="#ffffff" opacity="0.06"/>
    </pattern>
    <filter id="shadowDeep" x="-30%" y="-30%" width="160%" height="160%">
      <feDropShadow dx="0" dy="10" stdDeviation="10" flood-color="#000" flood-opacity="0.55"/>
    </filter>
    <filter id="glowC" x="-40%" y="-40%" width="180%" height="180%">
      <feGaussianBlur stdDeviation="4.8" result="b"/>
      <feColorMatrix in="b" type="matrix"
        values="1 0 0 0 0  0 1 0 0 0.25  0 0 1 0 0.75  0 0 0 0.95 0" result="c"/>
      <feMerge><feMergeNode in="c"/><feMergeNode in="SourceGraphic"/></feMerge>
    </filter>
    <filter id="glowO" x="-40%" y="-40%" width="180%" height="180%">
      <feGaussianBlur stdDeviation="5.5" result="b"/>
      <feColorMatrix in="b" type="matrix"
        values="1 0 0 0 0.18  0 1 0 0 0.05  0 0 1 0 0  0 0 0 0.85 0" result="c"/>
      <feMerge><feMergeNode in="c"/><feMergeNode in="SourceGraphic"/></feMerge>
    </filter>
    <filter id="textShadow">
      <feDropShadow dx="0" dy="2" stdDeviation="2" flood-color="#000" flood-opacity="0.9"/>
    </filter>
    <clipPath id="clipCard">
      <rect x="18" y="18" width="284" height="284" rx="22" ry="22"/>
    </clipPath>
  </defs>
  <rect width="320" height="320" fill="url(#bg)"/>
  <image href="../gallery/p01.jpg" x="0" y="0" width="320" height="320" preserveAspectRatio="xMidYMid slice" opacity="0"/>
  <rect width="320" height="320" fill="url(#shade)"/>
  <rect width="320" height="320" fill="url(#grid)"/>
  <rect width="320" height="320" fill="url(#scan)" opacity="0.65"/>
  <rect width="320" height="320" fill="url(#vign)"/>
  <g filter="url(#shadowDeep)">
    <rect x="18" y="18" width="284" height="284" rx="22" ry="22" fill="#07142a" opacity="0.52"/>
  </g>
  <rect x="18" y="18" width="284" height="284" rx="22" ry="22"
        fill="none" stroke="#4efcff" stroke-opacity="0.45" stroke-width="2.2" filter="url(#glowC)"/>
  <rect x="26" y="26" width="268" height="268" rx="18" ry="18"
        fill="none" stroke="#ff7a18" stroke-opacity="0.25" stroke-width="1.6" filter="url(#glowO)"/>
  <g clip-path="url(#clipCard)">
    <rect x="18" y="18" width="284" height="284" fill="url(#glass)"/>
    <path d="M28 28 L156 28 Q220 28 254 56 L308 106 L308 320 L28 320 Z" fill="url(#spec)" opacity="0.55"/>
  </g>
  <g opacity="0.75">
    <path d="M34 54 h18" stroke="#4efcff" stroke-opacity="0.45" stroke-width="2"/>
    <path d="M268 54 h18" stroke="#ff7a18" stroke-opacity="0.35" stroke-width="2"/>
    <path d="M34 268 h18" stroke="#ff7a18" stroke-opacity="0.30" stroke-width="2"/>
    <path d="M268 268 h18" stroke="#4efcff" stroke-opacity="0.40" stroke-width="2"/>
  </g>
  <g clip-path="url(#clipCard)">
    <circle cx="239" cy="273" r="0.8" fill="#ff7a18" opacity="0.35"/><circle cx="178" cy="267" r="1.6" fill="#ff7a18" opacity="0.65"/><circle cx="220" cy="131" r="2.0" fill="#ffffff" opacity="0.75"/><circle cx="86" cy="191" r="0.8" fill="#4efcff" opacity="0.65"/><circle cx="219" cy="215" r="2.0" fill="#ff7a18" opacity="0.75"/><circle cx="223" cy="265" r="2.0" fill="#ff7a18" opacity="0.35"/><circle cx="180" cy="260" r="0.8" fill="#ffffff" opacity="0.45"/><circle cx="61" cy="256" r="1.2" fill="#ffffff" opacity="0.75"/><circle cx="269" cy="55" r="2.0" fill="#ffffff" opacity="0.35"/><circle cx="114" cy="125" r="1.0" fill="#ffffff" opacity="0.35"/><circle cx="74" cy="259" r="0.8" fill="#ff7a18" opacity="0.35"/><circle cx="146" cy="184" r="1.2" fill="#ff7a18" opacity="0.45"/><circle cx="173" cy="149" r="1.0" fill="#4efcff" opacity="0.35"/><circle cx="130" cy="147" r="1.0" fill="#4efcff" opacity="0.55"/><circle cx="171" cy="256" r="1.0" fill="#4efcff" opacity="0.75"/><circle cx="58" cy="95" r="2.0" fill="#b36bff" opacity="0.65"/><circle cx="41" cy="222" r="1.6" fill="#4efcff" opacity="0.45"/><circle cx="73" cy="67" r="1.6" fill="#b36bff" opacity="0.55"/><circle cx="248" cy="60" r="0.8" fill="#ff7a18" opacity="0.35"/><circle cx="160" cy="87" r="2.0" fill="#b36bff" opacity="0.35"/><circle cx="53" cy="192" r="1.2" fill="#b36bff" opacity="0.65"/><circle cx="43" cy="236" r="1.6" fill="#b36bff" opacity="0.55"/><circle cx="161" cy="136" r="1.2" fill="#b36bff" opacity="0.45"/><circle cx="245" cy="61" r="1.2" fill="#ff7a18" opacity="0.75"/><circle cx="83" cy="54" r="1.0" fill="#b36bff" opacity="0.75"/><circle cx="262" cy="258" r="1.2" fill="#4efcff" opacity="0.35"/>
    <circle cx="160" cy="160" r="106" fill="none" stroke="#2bdcff" stroke-opacity="0.22" stroke-width="2"/>
    <circle cx="160" cy="160" r="50" fill="none" stroke="#b36bff" stroke-opacity="0.18" stroke-width="1.6"/>
    <g transform="translate(160 160)">
      <g>
        <animateTransform attributeName="transform" type="rotate"
          from="37 0 0" to="397 0 0"
          dur="7.8s" repeatCount="indefinite"/>
        <circle cx="106" cy="0" r="4.2" fill="#4efcff" opacity="0.85" filter="url(#glowC)"/>
        <circle cx="106" cy="0" r="2.0" fill="#ffffff" opacity="0.70"/>
      </g>
    </g>
    <g transform="translate(160 160)" opacity="0.55">
      <animateTransform attributeName="transform" type="rotate"
        from="217 0 0" to="-143 0 0"
        dur="15.2s" repeatCount="indefinite"/>
      <circle cx="0" cy="0" r="92" fill="none" stroke="#ff7a18" stroke-opacity="0.12" stroke-width="10" filter="url(#glowO)"/>
    </g>
  </g>
  <g opacity="0.75" filter="url(#glowC)">
    <rect x="46" y="278" width="6" height="24" rx="2" fill="#2bdcff" opacity="0.55"/><rect x="55" y="296" width="6" height="6" rx="2" fill="#2bdcff" opacity="0.55"/><rect x="64" y="285" width="6" height="17" rx="2" fill="#2bdcff" opacity="0.55"/><rect x="73" y="295" width="6" height="7" rx="2" fill="#2bdcff" opacity="0.55"/><rect x="82" y="294" width="6" height="8" rx="2" fill="#2bdcff" opacity="0.55"/><rect x="91" y="276" width="6" height="26" rx="2" fill="#2bdcff" opacity="0.55"/><rect x="100" y="277" width="6" height="25" rx="2" fill="#2bdcff" opacity="0.55"/><rect x="109" y="278" width="6" height="24" rx="2" fill="#2bdcff" opacity="0.55"/><rect x="118" y="295" width="6" height="7" rx="2" fill="#2bdcff" opacity="0.55"/><rect x="127" y="278" width="6" height="24" rx="2" fill="#2bdcff" opacity="0.55"/><rect x="136" y="274" width="6" height="28" rx="2" fill="#2bdcff" opacity="0.55"/><rect x="145" y="276" width="6" height="26" rx="2" fill="#2bdcff" opacity="0.55"/>
  </g>
  <g filter="url(#textShadow)">
    <text x="160" y="292" text-anchor="middle"
      font-family="ui-monospace, SFMono-Regular, Menlo, Consolas, monospace"
      font-size="12" font-weight="900" fill="#d7f6ff" opacity="0.92"
      paint-order="stroke fill" stroke="#000" stroke-width="3" stroke-linejoin="round">
      HUB_ANIM_01
    </text>
  </g>
</svg>
