<?xml version="1.0" encoding="UTF-8"?>
<svg xmlns="http://www.w3.org/2000/svg" width="320" height="320" viewBox="0 0 320 320">
  <defs>
    <linearGradient id="bg7" x1="0" y1="0" x2="1" y2="1">
      <stop offset="0" stop-color="#050713"/>
      <stop offset="1" stop-color="#0b1430"/>
    </linearGradient>
    <pattern id="grid7" patternUnits="userSpaceOnUse" width="28" height="28">
      <path d="M28 0H0V28" fill="none" stroke="#7aa7ff" stroke-opacity="0.09" stroke-width="1"/>
    </pattern>
    <pattern id="scan7" patternUnits="userSpaceOnUse" width="6" height="6">
      <rect width="6" height="6" fill="none"/>
      <rect y="0" width="6" height="1" fill="#ffffff" opacity="0.290"/>
    </pattern>
    <filter id="glow7" x="-40%" y="-40%" width="180%" height="180%">
      <feGaussianBlur stdDeviation="3.8" result="b"/>
      <feComposite in="b" in2="SourceGraphic" operator="over"/>
    </filter>
  </defs>
  <!-- background -->
  <rect width="320" height="320" fill="url(#bg7)"/>
  <rect width="320" height="320" fill="url(#grid7)"/>
  <rect width="320" height="320" fill="url(#scan7)"/>
  <!-- stars -->
  <circle cx="143" cy="87" r="1.35" fill="#ffffff" opacity="0.41"/><circle cx="180" cy="140" r="1.90" fill="#4efcff" opacity="0.57"/><circle cx="217" cy="193" r="0.80" fill="#ff7a18" opacity="0.33"/><circle cx="254" cy="246" r="1.35" fill="#b36bff" opacity="0.49"/><circle cx="291" cy="299" r="1.90" fill="#ffffff" opacity="0.25"/><circle cx="28" cy="52" r="0.80" fill="#4efcff" opacity="0.41"/><circle cx="65" cy="105" r="1.35" fill="#ff7a18" opacity="0.57"/><circle cx="102" cy="158" r="1.90" fill="#b36bff" opacity="0.33"/><circle cx="139" cy="211" r="0.80" fill="#ffffff" opacity="0.49"/><circle cx="176" cy="264" r="1.35" fill="#4efcff" opacity="0.25"/><circle cx="213" cy="17" r="1.90" fill="#ff7a18" opacity="0.41"/><circle cx="250" cy="70" r="0.80" fill="#b36bff" opacity="0.57"/><circle cx="287" cy="123" r="1.35" fill="#ffffff" opacity="0.33"/><circle cx="24" cy="176" r="1.90" fill="#4efcff" opacity="0.49"/><circle cx="61" cy="229" r="0.80" fill="#ff7a18" opacity="0.25"/><circle cx="98" cy="282" r="1.35" fill="#b36bff" opacity="0.41"/><circle cx="135" cy="35" r="1.90" fill="#ffffff" opacity="0.57"/><circle cx="172" cy="88" r="0.80" fill="#4efcff" opacity="0.33"/>
  <!-- orbit rings -->
  <ellipse cx="160.0" cy="160.0" rx="116" ry="74" fill="none" stroke="#4efcff" stroke-opacity="0.18" stroke-width="1.5" stroke-dasharray="4 6"/>
  <ellipse cx="160.0" cy="160.0" rx="96" ry="60" fill="none" stroke="#ff8c00" stroke-opacity="0.12" stroke-width="1"/>
  <!-- HUD ticks -->
  <line x1="258.00" y1="160.00" x2="276.00" y2="160.00" stroke="#4efcff" stroke-opacity="0.35" stroke-width="1.2"/><line x1="250.54" y1="197.50" x2="267.17" y2="204.39" stroke="#4efcff" stroke-opacity="0.35" stroke-width="1.2"/><line x1="229.30" y1="229.30" x2="242.02" y2="242.02" stroke="#4efcff" stroke-opacity="0.35" stroke-width="1.2"/><line x1="197.50" y1="250.54" x2="204.39" y2="267.17" stroke="#4efcff" stroke-opacity="0.35" stroke-width="1.2"/><line x1="160.00" y1="258.00" x2="160.00" y2="276.00" stroke="#4efcff" stroke-opacity="0.35" stroke-width="1.2"/><line x1="122.50" y1="250.54" x2="115.61" y2="267.17" stroke="#4efcff" stroke-opacity="0.35" stroke-width="1.2"/><line x1="90.70" y1="229.30" x2="77.98" y2="242.02" stroke="#4efcff" stroke-opacity="0.35" stroke-width="1.2"/><line x1="69.46" y1="197.50" x2="52.83" y2="204.39" stroke="#4efcff" stroke-opacity="0.35" stroke-width="1.2"/><line x1="62.00" y1="160.00" x2="44.00" y2="160.00" stroke="#4efcff" stroke-opacity="0.35" stroke-width="1.2"/><line x1="69.46" y1="122.50" x2="52.83" y2="115.61" stroke="#4efcff" stroke-opacity="0.35" stroke-width="1.2"/><line x1="90.70" y1="90.70" x2="77.98" y2="77.98" stroke="#4efcff" stroke-opacity="0.35" stroke-width="1.2"/><line x1="122.50" y1="69.46" x2="115.61" y2="52.83" stroke="#4efcff" stroke-opacity="0.35" stroke-width="1.2"/><line x1="160.00" y1="62.00" x2="160.00" y2="44.00" stroke="#4efcff" stroke-opacity="0.35" stroke-width="1.2"/><line x1="197.50" y1="69.46" x2="204.39" y2="52.83" stroke="#4efcff" stroke-opacity="0.35" stroke-width="1.2"/><line x1="229.30" y1="90.70" x2="242.02" y2="77.98" stroke="#4efcff" stroke-opacity="0.35" stroke-width="1.2"/><line x1="250.54" y1="122.50" x2="267.17" y2="115.61" stroke="#4efcff" stroke-opacity="0.35" stroke-width="1.2"/>
  <!-- center sphere -->
  <circle cx="160.0" cy="160.0" r="22" fill="#0b1a3a" stroke="#4efcff" stroke-opacity="0.5" stroke-width="1.8"/>
  <circle cx="160.0" cy="160.0" r="8" fill="#4efcff" opacity="0.18"/>
  <text x="160.0" y="164.0" text-anchor="middle" font-family="monospace" font-size="7" fill="#4efcff" opacity="0.7">CORE</text>
  <!-- orbiting dot (SMIL) -->
  <circle cx="276.00" cy="160.00" r="5.5" fill="#4efcff" filter="url(#glow7)">
    <animateTransform attributeName="transform" type="rotate"
      from="0 160.0 160.0" to="360 160.0 160.0"
      dur="3.35s" repeatCount="indefinite"/>
  </circle>
  <!-- data bars -->
  <rect x="26" y="264" width="8" height="6" fill="#4efcff" opacity="0.39" rx="1"/><rect x="40" y="255" width="8" height="15" fill="#4efcff" opacity="0.18" rx="1"/><rect x="54" y="246" width="8" height="24" fill="#4efcff" opacity="0.25" rx="1"/><rect x="68" y="258" width="8" height="12" fill="#4efcff" opacity="0.32" rx="1"/><rect x="82" y="249" width="8" height="21" fill="#4efcff" opacity="0.39" rx="1"/><rect x="96" y="261" width="8" height="9" fill="#4efcff" opacity="0.18" rx="1"/><rect x="110" y="252" width="8" height="18" fill="#4efcff" opacity="0.25" rx="1"/><rect x="124" y="264" width="8" height="6" fill="#4efcff" opacity="0.32" rx="1"/><rect x="138" y="255" width="8" height="15" fill="#4efcff" opacity="0.39" rx="1"/>
  <!-- label -->
  <text x="10" y="14" font-family="monospace" font-size="9" fill="#ff8c00" opacity="0.7">SYS-07</text>
  <text x="10" y="26" font-family="monospace" font-size="7" fill="#4efcff" opacity="0.45">LINUXIA · HUB</text>
</svg>