<?xml version="1.0" encoding="UTF-8"?>
<svg xmlns="http://www.w3.org/2000/svg" width="320" height="320" viewBox="0 0 320 320">
  <defs>
    <linearGradient id="bg9" x1="0" y1="0" x2="1" y2="1">
      <stop offset="0" stop-color="#050713"/>
      <stop offset="1" stop-color="#0b1430"/>
    </linearGradient>
    <pattern id="grid9" patternUnits="userSpaceOnUse" width="28" height="28">
      <path d="M28 0H0V28" fill="none" stroke="#7aa7ff" stroke-opacity="0.09" stroke-width="1"/>
    </pattern>
    <pattern id="scan9" patternUnits="userSpaceOnUse" width="6" height="6">
      <rect width="6" height="6" fill="none"/>
      <rect y="0" width="6" height="1" fill="#ffffff" opacity="0.230"/>
    </pattern>
    <filter id="glow9" x="-40%" y="-40%" width="180%" height="180%">
      <feGaussianBlur stdDeviation="3.8" result="b"/>
      <feComposite in="b" in2="SourceGraphic" operator="over"/>
    </filter>
  </defs>
  <!-- background -->
  <rect width="320" height="320" fill="url(#bg9)"/>
  <rect width="320" height="320" fill="url(#grid9)"/>
  <rect width="320" height="320" fill="url(#scan9)"/>
  <!-- stars -->
  <circle cx="181" cy="109" r="0.80" fill="#ff7a18" opacity="0.57"/><circle cx="218" cy="162" r="1.35" fill="#b36bff" opacity="0.33"/><circle cx="255" cy="215" r="1.90" fill="#ffffff" opacity="0.49"/><circle cx="292" cy="268" r="0.80" fill="#4efcff" opacity="0.25"/><circle cx="29" cy="21" r="1.35" fill="#ff7a18" opacity="0.41"/><circle cx="66" cy="74" r="1.90" fill="#b36bff" opacity="0.57"/><circle cx="103" cy="127" r="0.80" fill="#ffffff" opacity="0.33"/><circle cx="140" cy="180" r="1.35" fill="#4efcff" opacity="0.49"/><circle cx="177" cy="233" r="1.90" fill="#ff7a18" opacity="0.25"/><circle cx="214" cy="286" r="0.80" fill="#b36bff" opacity="0.41"/><circle cx="251" cy="39" r="1.35" fill="#ffffff" opacity="0.57"/><circle cx="288" cy="92" r="1.90" fill="#4efcff" opacity="0.33"/><circle cx="25" cy="145" r="0.80" fill="#ff7a18" opacity="0.49"/><circle cx="62" cy="198" r="1.35" fill="#b36bff" opacity="0.25"/><circle cx="99" cy="251" r="1.90" fill="#ffffff" opacity="0.41"/><circle cx="136" cy="304" r="0.80" fill="#4efcff" opacity="0.57"/><circle cx="173" cy="57" r="1.35" fill="#ff7a18" opacity="0.33"/><circle cx="210" cy="110" r="1.90" fill="#b36bff" opacity="0.49"/>
  <!-- orbit rings -->
  <ellipse cx="160.0" cy="160.0" rx="100" ry="64" fill="none" stroke="#4efcff" stroke-opacity="0.18" stroke-width="1.5" stroke-dasharray="4 6"/>
  <ellipse cx="160.0" cy="160.0" rx="80" ry="50" fill="none" stroke="#ff8c00" stroke-opacity="0.12" stroke-width="1"/>
  <!-- HUD ticks -->
  <line x1="262.00" y1="160.00" x2="280.00" y2="160.00" stroke="#4efcff" stroke-opacity="0.35" stroke-width="1.2"/><line x1="254.24" y1="199.03" x2="270.87" y2="205.92" stroke="#4efcff" stroke-opacity="0.35" stroke-width="1.2"/><line x1="232.12" y1="232.12" x2="244.85" y2="244.85" stroke="#4efcff" stroke-opacity="0.35" stroke-width="1.2"/><line x1="199.03" y1="254.24" x2="205.92" y2="270.87" stroke="#4efcff" stroke-opacity="0.35" stroke-width="1.2"/><line x1="160.00" y1="262.00" x2="160.00" y2="280.00" stroke="#4efcff" stroke-opacity="0.35" stroke-width="1.2"/><line x1="120.97" y1="254.24" x2="114.08" y2="270.87" stroke="#4efcff" stroke-opacity="0.35" stroke-width="1.2"/><line x1="87.88" y1="232.12" x2="75.15" y2="244.85" stroke="#4efcff" stroke-opacity="0.35" stroke-width="1.2"/><line x1="65.76" y1="199.03" x2="49.13" y2="205.92" stroke="#4efcff" stroke-opacity="0.35" stroke-width="1.2"/><line x1="58.00" y1="160.00" x2="40.00" y2="160.00" stroke="#4efcff" stroke-opacity="0.35" stroke-width="1.2"/><line x1="65.76" y1="120.97" x2="49.13" y2="114.08" stroke="#4efcff" stroke-opacity="0.35" stroke-width="1.2"/><line x1="87.88" y1="87.88" x2="75.15" y2="75.15" stroke="#4efcff" stroke-opacity="0.35" stroke-width="1.2"/><line x1="120.97" y1="65.76" x2="114.08" y2="49.13" stroke="#4efcff" stroke-opacity="0.35" stroke-width="1.2"/><line x1="160.00" y1="58.00" x2="160.00" y2="40.00" stroke="#4efcff" stroke-opacity="0.35" stroke-width="1.2"/><line x1="199.03" y1="65.76" x2="205.92" y2="49.13" stroke="#4efcff" stroke-opacity="0.35" stroke-width="1.2"/><line x1="232.12" y1="87.88" x2="244.85" y2="75.15" stroke="#4efcff" stroke-opacity="0.35" stroke-width="1.2"/><line x1="254.24" y1="120.97" x2="270.87" y2="114.08" stroke="#4efcff" stroke-opacity="0.35" stroke-width="1.2"/>
  <!-- center sphere -->
  <circle cx="160.0" cy="160.0" r="22" fill="#0b1a3a" stroke="#4efcff" stroke-opacity="0.5" stroke-width="1.8"/>
  <circle cx="160.0" cy="160.0" r="8" fill="#4efcff" opacity="0.18"/>
  <text x="160.0" y="164.0" text-anchor="middle" font-family="monospace" font-size="7" fill="#4efcff" opacity="0.7">CORE</text>
  <!-- orbiting dot (SMIL) -->
  <circle cx="260.00" cy="160.00" r="5.5" fill="#4efcff" filter="url(#glow9)">
    <animateTransform attributeName="transform" type="rotate"
      from="0 160.0 160.0" to="360 160.0 160.0"
      dur="2.80s" repeatCount="indefinite"/>
  </circle>
  <!-- data bars -->
  <rect x="26" y="258" width="8" height="12" fill="#4efcff" opacity="0.25" rx="1"/><rect x="40" y="249" width="8" height="21" fill="#4efcff" opacity="0.32" rx="1"/><rect x="54" y="261" width="8" height="9" fill="#4efcff" opacity="0.39" rx="1"/><rect x="68" y="252" width="8" height="18" fill="#4efcff" opacity="0.18" rx="1"/><rect x="82" y="264" width="8" height="6" fill="#4efcff" opacity="0.25" rx="1"/><rect x="96" y="255" width="8" height="15" fill="#4efcff" opacity="0.32" rx="1"/><rect x="110" y="246" width="8" height="24" fill="#4efcff" opacity="0.39" rx="1"/><rect x="124" y="258" width="8" height="12" fill="#4efcff" opacity="0.18" rx="1"/><rect x="138" y="249" width="8" height="21" fill="#4efcff" opacity="0.25" rx="1"/>
  <!-- label -->
  <text x="10" y="14" font-family="monospace" font-size="9" fill="#ff8c00" opacity="0.7">SYS-09</text>
  <text x="10" y="26" font-family="monospace" font-size="7" fill="#4efcff" opacity="0.45">LINUXIA · HUB</text>
</svg>