<?xml version="1.0" encoding="UTF-8"?>
<svg xmlns="http://www.w3.org/2000/svg" width="320" height="320" viewBox="0 0 320 320">
  <defs>
    <linearGradient id="bg" x1="0" y1="0" x2="1" y2="1">
      <stop offset="0" stop-color="#050713"/>
      <stop offset="1" stop-color="#0b1430"/>
    </linearGradient>
    <radialGradient id="vign" cx="50%" cy="45%" r="75%">
      <stop offset="0" stop-color="#000" stop-opacity="0"/>
      <stop offset="1" stop-color="#000" stop-opacity="0.55"/>
    </radialGradient>
    <pattern id="grid" patternUnits="userSpaceOnUse" width="28" height="28">
      <path d="M28 0H0V28" fill="none" stroke="#7aa7ff" stroke-opacity="0.09" stroke-width="1"/>
    </pattern>
    <pattern id="scan" patternUnits="userSpaceOnUse" width="6" height="6">
      <rect width="6" height="6" fill="none"/>
      <rect y="0" width="6" height="1" fill="#ffffff" opacity="0.290"/>
    </pattern>
    <filter id="glowC" x="-40%" y="-40%" width="180%" height="180%">
      <feGaussianBlur stdDeviation="3.8" result="b"/>
      <feColorMatrix in="b" type="matrix"
        values="1 0 0 0 0
                0 1 0 0 0.22
                0 0 1 0 0.70
                0 0 0 0.95 0" result="c"/>
      <feMerge><feMergeNode in="c"/><feMergeNode in="SourceGraphic"/></feMerge>
    </filter>
    <filter id="glowO" x="-40%" y="-40%" width="180%" height="180%">
      <feGaussianBlur stdDeviation="4.2" result="b"/>
      <feColorMatrix in="b" type="matrix"
        values="1 0 0 0 0.12
                0 1 0 0 0.04
                0 0 1 0 0
                0 0 0 0.85 0" result="c"/>
      <feMerge><feMergeNode in="c"/><feMergeNode in="SourceGraphic"/></feMerge>
    </filter>
    <filter id="shadow">
      <feDropShadow dx="0" dy="10" stdDeviation="10" flood-color="#000" flood-opacity="0.55"/>
    </filter>
  </defs>
  <rect width="320" height="320" fill="url(#bg)"/>
  <rect width="320" height="320" fill="url(#grid)"/>
  <rect width="320" height="320" fill="url(#scan)" opacity="0.55"/>
  <rect width="320" height="320" fill="url(#vign)"/>
  <g filter="url(#shadow)">
    <rect x="18" y="18" width="284" height="284" rx="22" fill="#0a1026" opacity="0.35"/>
  </g>
  <rect x="18" y="18" width="284" height="284" rx="22" fill="none" stroke="#4efcff" stroke-opacity="0.40" stroke-width="2" filter="url(#glowC)"/>
  <rect x="26" y="26" width="268" height="268" rx="18" fill="none" stroke="#ff7a18" stroke-opacity="0.22" stroke-width="1.6" filter="url(#glowO)"/>
  <g opacity="0.65">
    <path d="M28 54 h20" stroke="#4efcff" stroke-opacity="0.45" stroke-width="2"/>
    <path d="M272 54 h20" stroke="#ff7a18" stroke-opacity="0.30" stroke-width="2"/>
    <path d="M28 266 h20" stroke="#ff7a18" stroke-opacity="0.28" stroke-width="2"/>
    <path d="M272 266 h20" stroke="#4efcff" stroke-opacity="0.38" stroke-width="2"/>
  </g>
  <g><circle cx="143" cy="87" r="1.35" fill="#ffffff" opacity="0.41000000000000003"/><circle cx="180" cy="140" r="1.9000000000000001" fill="#4efcff" opacity="0.5700000000000001"/><circle cx="217" cy="193" r="0.8" fill="#ff7a18" opacity="0.33"/><circle cx="254" cy="246" r="1.35" fill="#b36bff" opacity="0.49"/><circle cx="291" cy="299" r="1.9000000000000001" fill="#ffffff" opacity="0.25"/><circle cx="28" cy="52" r="0.8" fill="#4efcff" opacity="0.41000000000000003"/><circle cx="65" cy="105" r="1.35" fill="#ff7a18" opacity="0.5700000000000001"/><circle cx="102" cy="158" r="1.9000000000000001" fill="#b36bff" opacity="0.33"/><circle cx="139" cy="211" r="0.8" fill="#ffffff" opacity="0.49"/><circle cx="176" cy="264" r="1.35" fill="#4efcff" opacity="0.25"/><circle cx="213" cy="17" r="1.9000000000000001" fill="#ff7a18" opacity="0.41000000000000003"/><circle cx="250" cy="70" r="0.8" fill="#b36bff" opacity="0.5700000000000001"/><circle cx="287" cy="123" r="1.35" fill="#ffffff" opacity="0.33"/><circle cx="24" cy="176" r="1.9000000000000001" fill="#4efcff" opacity="0.49"/><circle cx="61" cy="229" r="0.8" fill="#ff7a18" opacity="0.25"/><circle cx="98" cy="282" r="1.35" fill="#b36bff" opacity="0.41000000000000003"/><circle cx="135" cy="35" r="1.9000000000000001" fill="#ffffff" opacity="0.5700000000000001"/><circle cx="172" cy="88" r="0.8" fill="#4efcff" opacity="0.33"/></g>
  <g transform="translate(160.0,160.0) rotate(161)">
    <circle r="98" fill="none" stroke="#4efcff" stroke-opacity="0.28" stroke-width="2" filter="url(#glowC)"/>
    <circle r="116" fill="none" stroke="#ff7a18" stroke-opacity="0.18" stroke-width="1.6" filter="url(#glowO)"/>
    <path d="M -98 0 A 98 98 0 0 1 0 -98"
          fill="none" stroke="#4efcff" stroke-opacity="0.38" stroke-width="2"
          stroke-dasharray="4 10" stroke-linecap="round" filter="url(#glowC)"/>
    <circle r="64" fill="none" stroke="#b36bff" stroke-opacity="0.14" stroke-width="2"/>
    <g id="orb7">
      <circle cx="116" cy="0" r="3.2" fill="#4efcff" opacity="0.92" filter="url(#glowC)"/>
      <circle cx="116" cy="0" r="5.4" fill="none" stroke="#4efcff" stroke-opacity="0.22" stroke-width="2"/>
      <animateTransform attributeName="transform" type="rotate"
        from="0 0 0" to="360 0 0" dur="3.35s" repeatCount="indefinite"/>
    </g>
  </g>
  <g transform="translate(26,274)">
    <rect x="0" y="0" width="132" height="22" rx="11" fill="#0b1024" opacity="0.70" stroke="#4efcff" stroke-opacity="0.18"/>
    <g transform="translate(10,6)"><rect x="0" y="8" width="10" height="6" rx="2" fill="#4efcff" opacity="0.39"/><rect x="14" y="-1" width="10" height="15" rx="2" fill="#4efcff" opacity="0.18"/><rect x="28" y="-10" width="10" height="24" rx="2" fill="#4efcff" opacity="0.25"/><rect x="42" y="2" width="10" height="12" rx="2" fill="#4efcff" opacity="0.32"/><rect x="56" y="-7" width="10" height="21" rx="2" fill="#4efcff" opacity="0.39"/><rect x="70" y="5" width="10" height="9" rx="2" fill="#4efcff" opacity="0.18"/><rect x="84" y="-4" width="10" height="18" rx="2" fill="#4efcff" opacity="0.25"/><rect x="98" y="8" width="10" height="6" rx="2" fill="#4efcff" opacity="0.32"/><rect x="112" y="-1" width="10" height="15" rx="2" fill="#4efcff" opacity="0.39"/></g>
    <text x="150" y="16" font-family="ui-monospace, Menlo, Consolas, monospace" font-size="12" fill="#cfe7ff" opacity="0.75">HUB_ANIM_07</text>
  </g>
</svg>