<?xml version="1.0" encoding="UTF-8"?>
<svg xmlns="http://www.w3.org/2000/svg" width="320" height="320" viewBox="0 0 320 320">
  <defs>
    <linearGradient id="bg" x1="0" y1="0" x2="1" y2="1">
      <stop offset="0" stop-color="#02060f"/><stop offset="1" stop-color="#061225"/>
    </linearGradient>
    <radialGradient id="vign" cx="50%" cy="45%" r="70%">
      <stop offset="0" stop-color="#000" stop-opacity="0"/>
      <stop offset="1" stop-color="#000" stop-opacity="0.55"/>
    </radialGradient>
    <linearGradient id="shade" x1="0" y1="0" x2="1" y2="0">
      <stop offset="0" stop-color="#000" stop-opacity="0.82"/>
      <stop offset="0.52" stop-color="#000" stop-opacity="0.34"/>
      <stop offset="1" stop-color="#000" stop-opacity="0.82"/>
    </linearGradient>
    <pattern id="grid" patternUnits="userSpaceOnUse" width="28" height="28">
      <path d="M28 0H0V28" fill="none" stroke="#7aa7ff" stroke-opacity="0.11" stroke-width="1"/>
    </pattern>
    <pattern id="scan" patternUnits="userSpaceOnUse" width="6" height="6">
      <rect width="6" height="6" fill="none"/>
      <rect y="0" width="6" height="1" fill="#fff" opacity="0.06"/>
    </pattern>
    <filter id="shadowDeep" x="-30%" y="-30%" width="160%" height="160%">
      <feDropShadow dx="0" dy="10" stdDeviation="10" flood-color="#000" flood-opacity="0.55"/>
    </filter>
    <filter id="glowC" x="-40%" y="-40%" width="180%" height="180%">
      <feGaussianBlur stdDeviation="4.8" result="b"/>
      <feColorMatrix in="b" type="matrix"
        values="1 0 0 0 0  0 1 0 0 0.25  0 0 1 0 0.75  0 0 0 0.95 0" result="c"/>
      <feMerge><feMergeNode in="c"/><feMergeNode in="SourceGraphic"/></feMerge>
    </filter>
    <filter id="glowO" x="-40%" y="-40%" width="180%" height="180%">
      <feGaussianBlur stdDeviation="5.5" result="b"/>
      <feColorMatrix in="b" type="matrix"
        values="1 0 0 0 0.18  0 1 0 0 0.05  0 0 1 0 0  0 0 0 0.85 0" result="c"/>
      <feMerge><feMergeNode in="c"/><feMergeNode in="SourceGraphic"/></feMerge>
    </filter>
    <filter id="ts"><feDropShadow dx="0" dy="2" stdDeviation="2" flood-color="#000" flood-opacity="0.9"/></filter>
    <clipPath id="cc"><rect x="18" y="18" width="284" height="284" rx="22" ry="22"/></clipPath>
  </defs>
  <rect width="320" height="320" fill="url(#bg)"/>
  <rect width="320" height="320" fill="url(#shade)"/>
  <rect width="320" height="320" fill="url(#grid)"/>
  <rect width="320" height="320" fill="url(#scan)" opacity="0.65"/>
  <rect width="320" height="320" fill="url(#vign)"/>
  <g filter="url(#shadowDeep)">
    <rect x="18" y="18" width="284" height="284" rx="22" fill="#07142a" opacity="0.52"/>
  </g>
  <rect x="18" y="18" width="284" height="284" rx="22"
    fill="none" stroke="#4efcff" stroke-opacity="0.45" stroke-width="2.2" filter="url(#glowC)"/>
  <rect x="26" y="26" width="268" height="268" rx="18"
    fill="none" stroke="#ff6a00" stroke-opacity="0.25" stroke-width="1.6" filter="url(#glowO)"/>
  <g clip-path="url(#cc)">
    <rect x="18" y="18" width="284" height="284" fill="#fff" opacity="0.05"/>
    <circle cx="143" cy="63" r="2.0" fill="#ff6a00" opacity="0.45"/><circle cx="123" cy="202" r="0.8" fill="#ff6a00" opacity="0.75"/><circle cx="130" cy="53" r="2.0" fill="#ff6a00" opacity="0.35"/><circle cx="72" cy="218" r="0.8" fill="#ff6a00" opacity="0.45"/><circle cx="59" cy="250" r="2.0" fill="#b36bff" opacity="0.65"/><circle cx="113" cy="43" r="0.8" fill="#ffffff" opacity="0.35"/><circle cx="158" cy="283" r="0.8" fill="#b36bff" opacity="0.75"/><circle cx="43" cy="99" r="0.8" fill="#ffffff" opacity="0.55"/><circle cx="278" cy="149" r="0.8" fill="#ff6a00" opacity="0.65"/><circle cx="243" cy="144" r="1.6" fill="#ffffff" opacity="0.65"/><circle cx="78" cy="96" r="1.6" fill="#ff6a00" opacity="0.45"/><circle cx="156" cy="80" r="1.0" fill="#4efcff" opacity="0.65"/><circle cx="75" cy="271" r="2.0" fill="#b36bff" opacity="0.75"/><circle cx="43" cy="191" r="1.2" fill="#ff6a00" opacity="0.55"/><circle cx="148" cy="203" r="1.6" fill="#ffffff" opacity="0.65"/><circle cx="203" cy="92" r="1.6" fill="#ffffff" opacity="0.75"/><circle cx="61" cy="282" r="1.6" fill="#ffffff" opacity="0.65"/><circle cx="99" cy="103" r="1.0" fill="#ff6a00" opacity="0.65"/><circle cx="127" cy="230" r="1.6" fill="#4efcff" opacity="0.35"/><circle cx="91" cy="106" r="0.8" fill="#4efcff" opacity="0.35"/><circle cx="132" cy="254" r="2.0" fill="#ffffff" opacity="0.55"/><circle cx="228" cy="262" r="1.6" fill="#ff6a00" opacity="0.55"/><circle cx="278" cy="266" r="0.8" fill="#4efcff" opacity="0.55"/><circle cx="183" cy="89" r="1.2" fill="#4efcff" opacity="0.45"/><circle cx="237" cy="213" r="1.2" fill="#ffffff" opacity="0.75"/><circle cx="237" cy="45" r="0.8" fill="#ffffff" opacity="0.45"/>
    <circle cx="160" cy="160" r="106" fill="none" stroke="#2bdcff" stroke-opacity="0.22" stroke-width="2"/>
    <circle cx="160" cy="160" r="46" fill="none" stroke="#b36bff" stroke-opacity="0.18" stroke-width="1.6"/>
    <g transform="translate(160 160)">
      <g>
        <animateTransform attributeName="transform" type="rotate"
          from="148 0 0" to="508 0 0" dur="7.2s" repeatCount="indefinite"/>
        <circle cx="106" cy="0" r="4.2" fill="#4efcff" opacity="0.85" filter="url(#glowC)"/>
        <circle cx="106" cy="0" r="2.0" fill="#fff" opacity="0.70"/>
      </g>
    </g>
    <g transform="translate(160 160)" opacity="0.55">
      <animateTransform attributeName="transform" type="rotate"
        from="328 0 0" to="-32 0 0" dur="15.2s" repeatCount="indefinite"/>
      <circle cx="0" cy="0" r="92" fill="none" stroke="#ff6a00"
        stroke-opacity="0.12" stroke-width="10" filter="url(#glowO)"/>
    </g>
  </g>
  <g opacity="0.75" filter="url(#glowC)">
    <rect x="46" y="280" width="6" height="22" rx="2" fill="#2bdcff" opacity="0.55"/><rect x="55" y="296" width="6" height="6" rx="2" fill="#2bdcff" opacity="0.55"/><rect x="64" y="277" width="6" height="25" rx="2" fill="#2bdcff" opacity="0.55"/><rect x="73" y="290" width="6" height="12" rx="2" fill="#2bdcff" opacity="0.55"/><rect x="82" y="285" width="6" height="17" rx="2" fill="#2bdcff" opacity="0.55"/><rect x="91" y="293" width="6" height="9" rx="2" fill="#2bdcff" opacity="0.55"/><rect x="100" y="275" width="6" height="27" rx="2" fill="#2bdcff" opacity="0.55"/><rect x="109" y="277" width="6" height="25" rx="2" fill="#2bdcff" opacity="0.55"/><rect x="118" y="280" width="6" height="22" rx="2" fill="#2bdcff" opacity="0.55"/><rect x="127" y="277" width="6" height="25" rx="2" fill="#2bdcff" opacity="0.55"/><rect x="136" y="292" width="6" height="10" rx="2" fill="#2bdcff" opacity="0.55"/><rect x="145" y="282" width="6" height="20" rx="2" fill="#2bdcff" opacity="0.55"/>
  </g>
  <g filter="url(#ts)">
    <text x="160" y="292" text-anchor="middle"
      font-family="ui-monospace,SFMono-Regular,Menlo,Consolas,monospace"
      font-size="12" font-weight="900" fill="#d7f6ff" opacity="0.92"
      paint-order="stroke fill" stroke="#000" stroke-width="3" stroke-linejoin="round">
      HUB_ANIM_04
    </text>
  </g>
</svg>