<?xml version="1.0" encoding="UTF-8"?>
<svg xmlns="http://www.w3.org/2000/svg" width="320" height="320" viewBox="0 0 320 320">
  <defs>
    <linearGradient id="bg3" x1="0" y1="0" x2="1" y2="1">
      <stop offset="0" stop-color="#050713"/>
      <stop offset="1" stop-color="#0b1430"/>
    </linearGradient>
    <pattern id="grid3" patternUnits="userSpaceOnUse" width="28" height="28">
      <path d="M28 0H0V28" fill="none" stroke="#7aa7ff" stroke-opacity="0.09" stroke-width="1"/>
    </pattern>
    <pattern id="scan3" patternUnits="userSpaceOnUse" width="6" height="6">
      <rect width="6" height="6" fill="none"/>
      <rect y="0" width="6" height="1" fill="#ffffff" opacity="0.290"/>
    </pattern>
    <filter id="glow3" x="-40%" y="-40%" width="180%" height="180%">
      <feGaussianBlur stdDeviation="3.8" result="b"/>
      <feComposite in="b" in2="SourceGraphic" operator="over"/>
    </filter>
  </defs>
  <!-- background -->
  <rect width="320" height="320" fill="url(#bg3)"/>
  <rect width="320" height="320" fill="url(#grid3)"/>
  <rect width="320" height="320" fill="url(#scan3)"/>
  <!-- stars -->
  <circle cx="67" cy="43" r="0.80" fill="#ffffff" opacity="0.49"/><circle cx="104" cy="96" r="1.35" fill="#4efcff" opacity="0.25"/><circle cx="141" cy="149" r="1.90" fill="#ff7a18" opacity="0.41"/><circle cx="178" cy="202" r="0.80" fill="#b36bff" opacity="0.57"/><circle cx="215" cy="255" r="1.35" fill="#ffffff" opacity="0.33"/><circle cx="252" cy="308" r="1.90" fill="#4efcff" opacity="0.49"/><circle cx="289" cy="61" r="0.80" fill="#ff7a18" opacity="0.25"/><circle cx="26" cy="114" r="1.35" fill="#b36bff" opacity="0.41"/><circle cx="63" cy="167" r="1.90" fill="#ffffff" opacity="0.57"/><circle cx="100" cy="220" r="0.80" fill="#4efcff" opacity="0.33"/><circle cx="137" cy="273" r="1.35" fill="#ff7a18" opacity="0.49"/><circle cx="174" cy="26" r="1.90" fill="#b36bff" opacity="0.25"/><circle cx="211" cy="79" r="0.80" fill="#ffffff" opacity="0.41"/><circle cx="248" cy="132" r="1.35" fill="#4efcff" opacity="0.57"/><circle cx="285" cy="185" r="1.90" fill="#ff7a18" opacity="0.33"/><circle cx="22" cy="238" r="0.80" fill="#b36bff" opacity="0.49"/><circle cx="59" cy="291" r="1.35" fill="#ffffff" opacity="0.25"/><circle cx="96" cy="44" r="1.90" fill="#4efcff" opacity="0.41"/>
  <!-- orbit rings -->
  <ellipse cx="160.0" cy="160.0" rx="116" ry="64" fill="none" stroke="#4efcff" stroke-opacity="0.18" stroke-width="1.5" stroke-dasharray="4 6"/>
  <ellipse cx="160.0" cy="160.0" rx="96" ry="50" fill="none" stroke="#ff8c00" stroke-opacity="0.12" stroke-width="1"/>
  <!-- HUD ticks -->
  <line x1="250.00" y1="160.00" x2="268.00" y2="160.00" stroke="#4efcff" stroke-opacity="0.35" stroke-width="1.2"/><line x1="243.15" y1="194.44" x2="259.78" y2="201.33" stroke="#4efcff" stroke-opacity="0.35" stroke-width="1.2"/><line x1="223.64" y1="223.64" x2="236.37" y2="236.37" stroke="#4efcff" stroke-opacity="0.35" stroke-width="1.2"/><line x1="194.44" y1="243.15" x2="201.33" y2="259.78" stroke="#4efcff" stroke-opacity="0.35" stroke-width="1.2"/><line x1="160.00" y1="250.00" x2="160.00" y2="268.00" stroke="#4efcff" stroke-opacity="0.35" stroke-width="1.2"/><line x1="125.56" y1="243.15" x2="118.67" y2="259.78" stroke="#4efcff" stroke-opacity="0.35" stroke-width="1.2"/><line x1="96.36" y1="223.64" x2="83.63" y2="236.37" stroke="#4efcff" stroke-opacity="0.35" stroke-width="1.2"/><line x1="76.85" y1="194.44" x2="60.22" y2="201.33" stroke="#4efcff" stroke-opacity="0.35" stroke-width="1.2"/><line x1="70.00" y1="160.00" x2="52.00" y2="160.00" stroke="#4efcff" stroke-opacity="0.35" stroke-width="1.2"/><line x1="76.85" y1="125.56" x2="60.22" y2="118.67" stroke="#4efcff" stroke-opacity="0.35" stroke-width="1.2"/><line x1="96.36" y1="96.36" x2="83.63" y2="83.63" stroke="#4efcff" stroke-opacity="0.35" stroke-width="1.2"/><line x1="125.56" y1="76.85" x2="118.67" y2="60.22" stroke="#4efcff" stroke-opacity="0.35" stroke-width="1.2"/><line x1="160.00" y1="70.00" x2="160.00" y2="52.00" stroke="#4efcff" stroke-opacity="0.35" stroke-width="1.2"/><line x1="194.44" y1="76.85" x2="201.33" y2="60.22" stroke="#4efcff" stroke-opacity="0.35" stroke-width="1.2"/><line x1="223.64" y1="96.36" x2="236.37" y2="83.63" stroke="#4efcff" stroke-opacity="0.35" stroke-width="1.2"/><line x1="243.15" y1="125.56" x2="259.78" y2="118.67" stroke="#4efcff" stroke-opacity="0.35" stroke-width="1.2"/>
  <!-- center sphere -->
  <circle cx="160.0" cy="160.0" r="22" fill="#0b1a3a" stroke="#4efcff" stroke-opacity="0.5" stroke-width="1.8"/>
  <circle cx="160.0" cy="160.0" r="8" fill="#4efcff" opacity="0.18"/>
  <text x="160.0" y="164.0" text-anchor="middle" font-family="monospace" font-size="7" fill="#4efcff" opacity="0.7">CORE</text>
  <!-- orbiting dot (SMIL) -->
  <circle cx="276.00" cy="160.00" r="5.5" fill="#4efcff" filter="url(#glow3)">
    <animateTransform attributeName="transform" type="rotate"
      from="0 160.0 160.0" to="360 160.0 160.0"
      dur="2.80s" repeatCount="indefinite"/>
  </circle>
  <!-- data bars -->
  <rect x="26" y="255" width="8" height="15" fill="#4efcff" opacity="0.39" rx="1"/><rect x="40" y="246" width="8" height="24" fill="#4efcff" opacity="0.18" rx="1"/><rect x="54" y="258" width="8" height="12" fill="#4efcff" opacity="0.25" rx="1"/><rect x="68" y="249" width="8" height="21" fill="#4efcff" opacity="0.32" rx="1"/><rect x="82" y="261" width="8" height="9" fill="#4efcff" opacity="0.39" rx="1"/><rect x="96" y="252" width="8" height="18" fill="#4efcff" opacity="0.18" rx="1"/><rect x="110" y="264" width="8" height="6" fill="#4efcff" opacity="0.25" rx="1"/><rect x="124" y="255" width="8" height="15" fill="#4efcff" opacity="0.32" rx="1"/><rect x="138" y="246" width="8" height="24" fill="#4efcff" opacity="0.39" rx="1"/>
  <!-- label -->
  <text x="10" y="14" font-family="monospace" font-size="9" fill="#ff8c00" opacity="0.7">SYS-03</text>
  <text x="10" y="26" font-family="monospace" font-size="7" fill="#4efcff" opacity="0.45">LINUXIA · HUB</text>
</svg>