<?xml version="1.0" encoding="UTF-8"?>
<svg xmlns="http://www.w3.org/2000/svg" width="320" height="320" viewBox="0 0 320 320">
  <defs>
    <linearGradient id="bg" x1="0" y1="0" x2="1" y2="1">
      <stop offset="0" stop-color="#02060f"/>
      <stop offset="1" stop-color="#061225"/>
    </linearGradient>
    <radialGradient id="vign" cx="50%" cy="45%" r="70%">
      <stop offset="0" stop-color="#000" stop-opacity="0"/>
      <stop offset="1" stop-color="#000" stop-opacity="0.55"/>
    </radialGradient>
    <linearGradient id="shade" x1="0" y1="0" x2="1" y2="0">
      <stop offset="0" stop-color="#000" stop-opacity="0.82"/>
      <stop offset="0.52" stop-color="#000" stop-opacity="0.34"/>
      <stop offset="1" stop-color="#000" stop-opacity="0.82"/>
    </linearGradient>
    <linearGradient id="glass" x1="0" y1="0" x2="0" y2="1">
      <stop offset="0" stop-color="#ffffff" stop-opacity="0.14"/>
      <stop offset="1" stop-color="#ffffff" stop-opacity="0.05"/>
    </linearGradient>
    <linearGradient id="spec" x1="0" y1="0" x2="1" y2="1">
      <stop offset="0" stop-color="#ffffff" stop-opacity="0.26"/>
      <stop offset="0.22" stop-color="#ffffff" stop-opacity="0.06"/>
      <stop offset="1" stop-color="#ffffff" stop-opacity="0"/>
    </linearGradient>
    <pattern id="grid" patternUnits="userSpaceOnUse" width="28" height="28">
      <path d="M28 0H0V28" fill="none" stroke="#7aa7ff" stroke-opacity="0.11" stroke-width="1"/>
    </pattern>
    <pattern id="scan" patternUnits="userSpaceOnUse" width="6" height="6">
      <rect width="6" height="6" fill="none"/>
      <rect y="0" width="6" height="1" fill="#ffffff" opacity="0.06"/>
    </pattern>
    <filter id="shadowDeep" x="-30%" y="-30%" width="160%" height="160%">
      <feDropShadow dx="0" dy="10" stdDeviation="10" flood-color="#000" flood-opacity="0.55"/>
    </filter>
    <filter id="glowC" x="-40%" y="-40%" width="180%" height="180%">
      <feGaussianBlur stdDeviation="4.8" result="b"/>
      <feColorMatrix in="b" type="matrix"
        values="1 0 0 0 0  0 1 0 0 0.25  0 0 1 0 0.75  0 0 0 0.95 0" result="c"/>
      <feMerge><feMergeNode in="c"/><feMergeNode in="SourceGraphic"/></feMerge>
    </filter>
    <filter id="glowO" x="-40%" y="-40%" width="180%" height="180%">
      <feGaussianBlur stdDeviation="5.5" result="b"/>
      <feColorMatrix in="b" type="matrix"
        values="1 0 0 0 0.18  0 1 0 0 0.05  0 0 1 0 0  0 0 0 0.85 0" result="c"/>
      <feMerge><feMergeNode in="c"/><feMergeNode in="SourceGraphic"/></feMerge>
    </filter>
    <filter id="textShadow">
      <feDropShadow dx="0" dy="2" stdDeviation="2" flood-color="#000" flood-opacity="0.9"/>
    </filter>
    <clipPath id="clipCard">
      <rect x="18" y="18" width="284" height="284" rx="22" ry="22"/>
    </clipPath>
  </defs>
  <rect width="320" height="320" fill="url(#bg)"/>
  <image href="../gallery/p02.jpg" x="0" y="0" width="320" height="320" preserveAspectRatio="xMidYMid slice" opacity="0"/>
  <rect width="320" height="320" fill="url(#shade)"/>
  <rect width="320" height="320" fill="url(#grid)"/>
  <rect width="320" height="320" fill="url(#scan)" opacity="0.65"/>
  <rect width="320" height="320" fill="url(#vign)"/>
  <g filter="url(#shadowDeep)">
    <rect x="18" y="18" width="284" height="284" rx="22" ry="22" fill="#07142a" opacity="0.52"/>
  </g>
  <rect x="18" y="18" width="284" height="284" rx="22" ry="22"
        fill="none" stroke="#4efcff" stroke-opacity="0.45" stroke-width="2.2" filter="url(#glowC)"/>
  <rect x="26" y="26" width="268" height="268" rx="18" ry="18"
        fill="none" stroke="#ff7a18" stroke-opacity="0.25" stroke-width="1.6" filter="url(#glowO)"/>
  <g clip-path="url(#clipCard)">
    <rect x="18" y="18" width="284" height="284" fill="url(#glass)"/>
    <path d="M28 28 L156 28 Q220 28 254 56 L308 106 L308 320 L28 320 Z" fill="url(#spec)" opacity="0.55"/>
  </g>
  <g opacity="0.75">
    <path d="M34 54 h18" stroke="#4efcff" stroke-opacity="0.45" stroke-width="2"/>
    <path d="M268 54 h18" stroke="#ff7a18" stroke-opacity="0.35" stroke-width="2"/>
    <path d="M34 268 h18" stroke="#ff7a18" stroke-opacity="0.30" stroke-width="2"/>
    <path d="M268 268 h18" stroke="#4efcff" stroke-opacity="0.40" stroke-width="2"/>
  </g>
  <g clip-path="url(#clipCard)">
    <circle cx="169" cy="188" r="1.6" fill="#ff7a18" opacity="0.45"/><circle cx="69" cy="107" r="1.6" fill="#ff7a18" opacity="0.75"/><circle cx="195" cy="59" r="1.6" fill="#4efcff" opacity="0.45"/><circle cx="93" cy="237" r="0.8" fill="#ffffff" opacity="0.35"/><circle cx="180" cy="178" r="1.0" fill="#ff7a18" opacity="0.55"/><circle cx="155" cy="228" r="1.2" fill="#4efcff" opacity="0.75"/><circle cx="276" cy="184" r="1.6" fill="#b36bff" opacity="0.35"/><circle cx="61" cy="145" r="0.8" fill="#4efcff" opacity="0.65"/><circle cx="116" cy="276" r="2.0" fill="#ff7a18" opacity="0.75"/><circle cx="142" cy="53" r="1.6" fill="#4efcff" opacity="0.75"/><circle cx="243" cy="241" r="2.0" fill="#ff7a18" opacity="0.35"/><circle cx="271" cy="60" r="0.8" fill="#ffffff" opacity="0.35"/><circle cx="159" cy="48" r="1.6" fill="#b36bff" opacity="0.35"/><circle cx="51" cy="89" r="1.0" fill="#4efcff" opacity="0.75"/><circle cx="278" cy="59" r="0.8" fill="#ff7a18" opacity="0.35"/><circle cx="96" cy="238" r="0.8" fill="#ff7a18" opacity="0.65"/><circle cx="270" cy="119" r="1.6" fill="#ffffff" opacity="0.45"/><circle cx="108" cy="263" r="1.0" fill="#ffffff" opacity="0.75"/><circle cx="277" cy="254" r="0.8" fill="#ffffff" opacity="0.45"/><circle cx="46" cy="58" r="1.2" fill="#b36bff" opacity="0.65"/><circle cx="47" cy="177" r="1.6" fill="#b36bff" opacity="0.35"/><circle cx="65" cy="124" r="2.0" fill="#ffffff" opacity="0.35"/><circle cx="144" cy="69" r="2.0" fill="#4efcff" opacity="0.75"/><circle cx="241" cy="113" r="0.8" fill="#4efcff" opacity="0.45"/><circle cx="183" cy="133" r="1.6" fill="#b36bff" opacity="0.55"/><circle cx="216" cy="199" r="1.2" fill="#ffffff" opacity="0.45"/>
    <circle cx="160" cy="160" r="116" fill="none" stroke="#2bdcff" stroke-opacity="0.22" stroke-width="2"/>
    <circle cx="160" cy="160" r="54" fill="none" stroke="#b36bff" stroke-opacity="0.18" stroke-width="1.6"/>
    <g transform="translate(160 160)">
      <g>
        <animateTransform attributeName="transform" type="rotate"
          from="74 0 0" to="434 0 0"
          dur="8.4s" repeatCount="indefinite"/>
        <circle cx="116" cy="0" r="4.2" fill="#4efcff" opacity="0.85" filter="url(#glowC)"/>
        <circle cx="116" cy="0" r="2.0" fill="#ffffff" opacity="0.70"/>
      </g>
    </g>
    <g transform="translate(160 160)" opacity="0.55">
      <animateTransform attributeName="transform" type="rotate"
        from="254 0 0" to="-106 0 0"
        dur="16.4s" repeatCount="indefinite"/>
      <circle cx="0" cy="0" r="102" fill="none" stroke="#ff7a18" stroke-opacity="0.12" stroke-width="10" filter="url(#glowO)"/>
    </g>
  </g>
  <g opacity="0.75" filter="url(#glowC)">
    <rect x="46" y="296" width="6" height="6" rx="2" fill="#2bdcff" opacity="0.55"/><rect x="55" y="280" width="6" height="22" rx="2" fill="#2bdcff" opacity="0.55"/><rect x="64" y="286" width="6" height="16" rx="2" fill="#2bdcff" opacity="0.55"/><rect x="73" y="276" width="6" height="26" rx="2" fill="#2bdcff" opacity="0.55"/><rect x="82" y="278" width="6" height="24" rx="2" fill="#2bdcff" opacity="0.55"/><rect x="91" y="293" width="6" height="9" rx="2" fill="#2bdcff" opacity="0.55"/><rect x="100" y="288" width="6" height="14" rx="2" fill="#2bdcff" opacity="0.55"/><rect x="109" y="287" width="6" height="15" rx="2" fill="#2bdcff" opacity="0.55"/><rect x="118" y="277" width="6" height="25" rx="2" fill="#2bdcff" opacity="0.55"/><rect x="127" y="296" width="6" height="6" rx="2" fill="#2bdcff" opacity="0.55"/><rect x="136" y="293" width="6" height="9" rx="2" fill="#2bdcff" opacity="0.55"/><rect x="145" y="288" width="6" height="14" rx="2" fill="#2bdcff" opacity="0.55"/>
  </g>
  <g filter="url(#textShadow)">
    <text x="160" y="292" text-anchor="middle"
      font-family="ui-monospace, SFMono-Regular, Menlo, Consolas, monospace"
      font-size="12" font-weight="900" fill="#d7f6ff" opacity="0.92"
      paint-order="stroke fill" stroke="#000" stroke-width="3" stroke-linejoin="round">
      HUB_ANIM_02
    </text>
  </g>
</svg>
