<?xml version="1.0" encoding="UTF-8"?>
<svg xmlns="http://www.w3.org/2000/svg" width="320" height="320" viewBox="0 0 320 320">
  <defs>
    <linearGradient id="bg8" x1="0" y1="0" x2="1" y2="1">
      <stop offset="0" stop-color="#050713"/>
      <stop offset="1" stop-color="#0b1430"/>
    </linearGradient>
    <pattern id="grid8" patternUnits="userSpaceOnUse" width="28" height="28">
      <path d="M28 0H0V28" fill="none" stroke="#7aa7ff" stroke-opacity="0.09" stroke-width="1"/>
    </pattern>
    <pattern id="scan8" patternUnits="userSpaceOnUse" width="6" height="6">
      <rect width="6" height="6" fill="none"/>
      <rect y="0" width="6" height="1" fill="#ffffff" opacity="0.200"/>
    </pattern>
    <filter id="glow8" x="-40%" y="-40%" width="180%" height="180%">
      <feGaussianBlur stdDeviation="3.8" result="b"/>
      <feComposite in="b" in2="SourceGraphic" operator="over"/>
    </filter>
  </defs>
  <!-- background -->
  <rect width="320" height="320" fill="url(#bg8)"/>
  <rect width="320" height="320" fill="url(#grid8)"/>
  <rect width="320" height="320" fill="url(#scan8)"/>
  <!-- stars -->
  <circle cx="162" cy="98" r="1.90" fill="#4efcff" opacity="0.49"/><circle cx="199" cy="151" r="0.80" fill="#ff7a18" opacity="0.25"/><circle cx="236" cy="204" r="1.35" fill="#b36bff" opacity="0.41"/><circle cx="273" cy="257" r="1.90" fill="#ffffff" opacity="0.57"/><circle cx="10" cy="10" r="0.80" fill="#4efcff" opacity="0.33"/><circle cx="47" cy="63" r="1.35" fill="#ff7a18" opacity="0.49"/><circle cx="84" cy="116" r="1.90" fill="#b36bff" opacity="0.25"/><circle cx="121" cy="169" r="0.80" fill="#ffffff" opacity="0.41"/><circle cx="158" cy="222" r="1.35" fill="#4efcff" opacity="0.57"/><circle cx="195" cy="275" r="1.90" fill="#ff7a18" opacity="0.33"/><circle cx="232" cy="28" r="0.80" fill="#b36bff" opacity="0.49"/><circle cx="269" cy="81" r="1.35" fill="#ffffff" opacity="0.25"/><circle cx="306" cy="134" r="1.90" fill="#4efcff" opacity="0.41"/><circle cx="43" cy="187" r="0.80" fill="#ff7a18" opacity="0.57"/><circle cx="80" cy="240" r="1.35" fill="#b36bff" opacity="0.33"/><circle cx="117" cy="293" r="1.90" fill="#ffffff" opacity="0.49"/><circle cx="154" cy="46" r="0.80" fill="#4efcff" opacity="0.25"/><circle cx="191" cy="99" r="1.35" fill="#ff7a18" opacity="0.41"/>
  <!-- orbit rings -->
  <ellipse cx="160.0" cy="160.0" rx="92" ry="84" fill="none" stroke="#4efcff" stroke-opacity="0.18" stroke-width="1.5" stroke-dasharray="4 6"/>
  <ellipse cx="160.0" cy="160.0" rx="72" ry="70" fill="none" stroke="#ff8c00" stroke-opacity="0.12" stroke-width="1"/>
  <!-- HUD ticks -->
  <line x1="260.00" y1="160.00" x2="278.00" y2="160.00" stroke="#4efcff" stroke-opacity="0.35" stroke-width="1.2"/><line x1="252.39" y1="198.27" x2="269.02" y2="205.16" stroke="#4efcff" stroke-opacity="0.35" stroke-width="1.2"/><line x1="230.71" y1="230.71" x2="243.44" y2="243.44" stroke="#4efcff" stroke-opacity="0.35" stroke-width="1.2"/><line x1="198.27" y1="252.39" x2="205.16" y2="269.02" stroke="#4efcff" stroke-opacity="0.35" stroke-width="1.2"/><line x1="160.00" y1="260.00" x2="160.00" y2="278.00" stroke="#4efcff" stroke-opacity="0.35" stroke-width="1.2"/><line x1="121.73" y1="252.39" x2="114.84" y2="269.02" stroke="#4efcff" stroke-opacity="0.35" stroke-width="1.2"/><line x1="89.29" y1="230.71" x2="76.56" y2="243.44" stroke="#4efcff" stroke-opacity="0.35" stroke-width="1.2"/><line x1="67.61" y1="198.27" x2="50.98" y2="205.16" stroke="#4efcff" stroke-opacity="0.35" stroke-width="1.2"/><line x1="60.00" y1="160.00" x2="42.00" y2="160.00" stroke="#4efcff" stroke-opacity="0.35" stroke-width="1.2"/><line x1="67.61" y1="121.73" x2="50.98" y2="114.84" stroke="#4efcff" stroke-opacity="0.35" stroke-width="1.2"/><line x1="89.29" y1="89.29" x2="76.56" y2="76.56" stroke="#4efcff" stroke-opacity="0.35" stroke-width="1.2"/><line x1="121.73" y1="67.61" x2="114.84" y2="50.98" stroke="#4efcff" stroke-opacity="0.35" stroke-width="1.2"/><line x1="160.00" y1="60.00" x2="160.00" y2="42.00" stroke="#4efcff" stroke-opacity="0.35" stroke-width="1.2"/><line x1="198.27" y1="67.61" x2="205.16" y2="50.98" stroke="#4efcff" stroke-opacity="0.35" stroke-width="1.2"/><line x1="230.71" y1="89.29" x2="243.44" y2="76.56" stroke="#4efcff" stroke-opacity="0.35" stroke-width="1.2"/><line x1="252.39" y1="121.73" x2="269.02" y2="114.84" stroke="#4efcff" stroke-opacity="0.35" stroke-width="1.2"/>
  <!-- center sphere -->
  <circle cx="160.0" cy="160.0" r="22" fill="#0b1a3a" stroke="#4efcff" stroke-opacity="0.5" stroke-width="1.8"/>
  <circle cx="160.0" cy="160.0" r="8" fill="#4efcff" opacity="0.18"/>
  <text x="160.0" y="164.0" text-anchor="middle" font-family="monospace" font-size="7" fill="#4efcff" opacity="0.7">CORE</text>
  <!-- orbiting dot (SMIL) -->
  <circle cx="252.00" cy="160.00" r="5.5" fill="#4efcff" filter="url(#glow8)">
    <animateTransform attributeName="transform" type="rotate"
      from="0 160.0 160.0" to="360 160.0 160.0"
      dur="3.90s" repeatCount="indefinite"/>
  </circle>
  <!-- data bars -->
  <rect x="26" y="261" width="8" height="9" fill="#4efcff" opacity="0.18" rx="1"/><rect x="40" y="252" width="8" height="18" fill="#4efcff" opacity="0.25" rx="1"/><rect x="54" y="264" width="8" height="6" fill="#4efcff" opacity="0.32" rx="1"/><rect x="68" y="255" width="8" height="15" fill="#4efcff" opacity="0.39" rx="1"/><rect x="82" y="246" width="8" height="24" fill="#4efcff" opacity="0.18" rx="1"/><rect x="96" y="258" width="8" height="12" fill="#4efcff" opacity="0.25" rx="1"/><rect x="110" y="249" width="8" height="21" fill="#4efcff" opacity="0.32" rx="1"/><rect x="124" y="261" width="8" height="9" fill="#4efcff" opacity="0.39" rx="1"/><rect x="138" y="252" width="8" height="18" fill="#4efcff" opacity="0.18" rx="1"/>
  <!-- label -->
  <text x="10" y="14" font-family="monospace" font-size="9" fill="#ff8c00" opacity="0.7">SYS-08</text>
  <text x="10" y="26" font-family="monospace" font-size="7" fill="#4efcff" opacity="0.45">LINUXIA · HUB</text>
</svg>