<?xml version="1.0" encoding="UTF-8"?>
<svg xmlns="http://www.w3.org/2000/svg" width="320" height="320" viewBox="0 0 320 320">
  <defs>
    <linearGradient id="bg6" x1="0" y1="0" x2="1" y2="1">
      <stop offset="0" stop-color="#050713"/>
      <stop offset="1" stop-color="#0b1430"/>
    </linearGradient>
    <pattern id="grid6" patternUnits="userSpaceOnUse" width="28" height="28">
      <path d="M28 0H0V28" fill="none" stroke="#7aa7ff" stroke-opacity="0.09" stroke-width="1"/>
    </pattern>
    <pattern id="scan6" patternUnits="userSpaceOnUse" width="6" height="6">
      <rect width="6" height="6" fill="none"/>
      <rect y="0" width="6" height="1" fill="#ffffff" opacity="0.260"/>
    </pattern>
    <filter id="glow6" x="-40%" y="-40%" width="180%" height="180%">
      <feGaussianBlur stdDeviation="3.8" result="b"/>
      <feComposite in="b" in2="SourceGraphic" operator="over"/>
    </filter>
  </defs>
  <!-- background -->
  <rect width="320" height="320" fill="url(#bg6)"/>
  <rect width="320" height="320" fill="url(#grid6)"/>
  <rect width="320" height="320" fill="url(#scan6)"/>
  <!-- stars -->
  <circle cx="124" cy="76" r="0.80" fill="#b36bff" opacity="0.33"/><circle cx="161" cy="129" r="1.35" fill="#ffffff" opacity="0.49"/><circle cx="198" cy="182" r="1.90" fill="#4efcff" opacity="0.25"/><circle cx="235" cy="235" r="0.80" fill="#ff7a18" opacity="0.41"/><circle cx="272" cy="288" r="1.35" fill="#b36bff" opacity="0.57"/><circle cx="309" cy="41" r="1.90" fill="#ffffff" opacity="0.33"/><circle cx="46" cy="94" r="0.80" fill="#4efcff" opacity="0.49"/><circle cx="83" cy="147" r="1.35" fill="#ff7a18" opacity="0.25"/><circle cx="120" cy="200" r="1.90" fill="#b36bff" opacity="0.41"/><circle cx="157" cy="253" r="0.80" fill="#ffffff" opacity="0.57"/><circle cx="194" cy="306" r="1.35" fill="#4efcff" opacity="0.33"/><circle cx="231" cy="59" r="1.90" fill="#ff7a18" opacity="0.49"/><circle cx="268" cy="112" r="0.80" fill="#b36bff" opacity="0.25"/><circle cx="305" cy="165" r="1.35" fill="#ffffff" opacity="0.41"/><circle cx="42" cy="218" r="1.90" fill="#4efcff" opacity="0.57"/><circle cx="79" cy="271" r="0.80" fill="#ff7a18" opacity="0.33"/><circle cx="116" cy="24" r="1.35" fill="#b36bff" opacity="0.49"/><circle cx="153" cy="77" r="1.90" fill="#ffffff" opacity="0.25"/>
  <!-- orbit rings -->
  <ellipse cx="160.0" cy="160.0" rx="108" ry="64" fill="none" stroke="#4efcff" stroke-opacity="0.18" stroke-width="1.5" stroke-dasharray="4 6"/>
  <ellipse cx="160.0" cy="160.0" rx="88" ry="50" fill="none" stroke="#ff8c00" stroke-opacity="0.12" stroke-width="1"/>
  <!-- HUD ticks -->
  <line x1="256.00" y1="160.00" x2="274.00" y2="160.00" stroke="#4efcff" stroke-opacity="0.35" stroke-width="1.2"/><line x1="248.69" y1="196.74" x2="265.32" y2="203.63" stroke="#4efcff" stroke-opacity="0.35" stroke-width="1.2"/><line x1="227.88" y1="227.88" x2="240.61" y2="240.61" stroke="#4efcff" stroke-opacity="0.35" stroke-width="1.2"/><line x1="196.74" y1="248.69" x2="203.63" y2="265.32" stroke="#4efcff" stroke-opacity="0.35" stroke-width="1.2"/><line x1="160.00" y1="256.00" x2="160.00" y2="274.00" stroke="#4efcff" stroke-opacity="0.35" stroke-width="1.2"/><line x1="123.26" y1="248.69" x2="116.37" y2="265.32" stroke="#4efcff" stroke-opacity="0.35" stroke-width="1.2"/><line x1="92.12" y1="227.88" x2="79.39" y2="240.61" stroke="#4efcff" stroke-opacity="0.35" stroke-width="1.2"/><line x1="71.31" y1="196.74" x2="54.68" y2="203.63" stroke="#4efcff" stroke-opacity="0.35" stroke-width="1.2"/><line x1="64.00" y1="160.00" x2="46.00" y2="160.00" stroke="#4efcff" stroke-opacity="0.35" stroke-width="1.2"/><line x1="71.31" y1="123.26" x2="54.68" y2="116.37" stroke="#4efcff" stroke-opacity="0.35" stroke-width="1.2"/><line x1="92.12" y1="92.12" x2="79.39" y2="79.39" stroke="#4efcff" stroke-opacity="0.35" stroke-width="1.2"/><line x1="123.26" y1="71.31" x2="116.37" y2="54.68" stroke="#4efcff" stroke-opacity="0.35" stroke-width="1.2"/><line x1="160.00" y1="64.00" x2="160.00" y2="46.00" stroke="#4efcff" stroke-opacity="0.35" stroke-width="1.2"/><line x1="196.74" y1="71.31" x2="203.63" y2="54.68" stroke="#4efcff" stroke-opacity="0.35" stroke-width="1.2"/><line x1="227.88" y1="92.12" x2="240.61" y2="79.39" stroke="#4efcff" stroke-opacity="0.35" stroke-width="1.2"/><line x1="248.69" y1="123.26" x2="265.32" y2="116.37" stroke="#4efcff" stroke-opacity="0.35" stroke-width="1.2"/>
  <!-- center sphere -->
  <circle cx="160.0" cy="160.0" r="22" fill="#0b1a3a" stroke="#4efcff" stroke-opacity="0.5" stroke-width="1.8"/>
  <circle cx="160.0" cy="160.0" r="8" fill="#4efcff" opacity="0.18"/>
  <text x="160.0" y="164.0" text-anchor="middle" font-family="monospace" font-size="7" fill="#4efcff" opacity="0.7">CORE</text>
  <!-- orbiting dot (SMIL) -->
  <circle cx="268.00" cy="160.00" r="5.5" fill="#4efcff" filter="url(#glow6)">
    <animateTransform attributeName="transform" type="rotate"
      from="0 160.0 160.0" to="360 160.0 160.0"
      dur="2.80s" repeatCount="indefinite"/>
  </circle>
  <!-- data bars -->
  <rect x="26" y="246" width="8" height="24" fill="#4efcff" opacity="0.32" rx="1"/><rect x="40" y="258" width="8" height="12" fill="#4efcff" opacity="0.39" rx="1"/><rect x="54" y="249" width="8" height="21" fill="#4efcff" opacity="0.18" rx="1"/><rect x="68" y="261" width="8" height="9" fill="#4efcff" opacity="0.25" rx="1"/><rect x="82" y="252" width="8" height="18" fill="#4efcff" opacity="0.32" rx="1"/><rect x="96" y="264" width="8" height="6" fill="#4efcff" opacity="0.39" rx="1"/><rect x="110" y="255" width="8" height="15" fill="#4efcff" opacity="0.18" rx="1"/><rect x="124" y="246" width="8" height="24" fill="#4efcff" opacity="0.25" rx="1"/><rect x="138" y="258" width="8" height="12" fill="#4efcff" opacity="0.32" rx="1"/>
  <!-- label -->
  <text x="10" y="14" font-family="monospace" font-size="9" fill="#ff8c00" opacity="0.7">SYS-06</text>
  <text x="10" y="26" font-family="monospace" font-size="7" fill="#4efcff" opacity="0.45">LINUXIA · HUB</text>
</svg>