<?xml version="1.0" encoding="UTF-8"?>
<svg xmlns="http://www.w3.org/2000/svg" width="320" height="320" viewBox="0 0 320 320">
  <defs>
    <linearGradient id="bg4" x1="0" y1="0" x2="1" y2="1">
      <stop offset="0" stop-color="#050713"/>
      <stop offset="1" stop-color="#0b1430"/>
    </linearGradient>
    <pattern id="grid4" patternUnits="userSpaceOnUse" width="28" height="28">
      <path d="M28 0H0V28" fill="none" stroke="#7aa7ff" stroke-opacity="0.09" stroke-width="1"/>
    </pattern>
    <pattern id="scan4" patternUnits="userSpaceOnUse" width="6" height="6">
      <rect width="6" height="6" fill="none"/>
      <rect y="0" width="6" height="1" fill="#ffffff" opacity="0.200"/>
    </pattern>
    <filter id="glow4" x="-40%" y="-40%" width="180%" height="180%">
      <feGaussianBlur stdDeviation="3.8" result="b"/>
      <feComposite in="b" in2="SourceGraphic" operator="over"/>
    </filter>
  </defs>
  <!-- background -->
  <rect width="320" height="320" fill="url(#bg4)"/>
  <rect width="320" height="320" fill="url(#grid4)"/>
  <rect width="320" height="320" fill="url(#scan4)"/>
  <!-- stars -->
  <circle cx="86" cy="54" r="1.35" fill="#4efcff" opacity="0.57"/><circle cx="123" cy="107" r="1.90" fill="#ff7a18" opacity="0.33"/><circle cx="160" cy="160" r="0.80" fill="#b36bff" opacity="0.49"/><circle cx="197" cy="213" r="1.35" fill="#ffffff" opacity="0.25"/><circle cx="234" cy="266" r="1.90" fill="#4efcff" opacity="0.41"/><circle cx="271" cy="19" r="0.80" fill="#ff7a18" opacity="0.57"/><circle cx="308" cy="72" r="1.35" fill="#b36bff" opacity="0.33"/><circle cx="45" cy="125" r="1.90" fill="#ffffff" opacity="0.49"/><circle cx="82" cy="178" r="0.80" fill="#4efcff" opacity="0.25"/><circle cx="119" cy="231" r="1.35" fill="#ff7a18" opacity="0.41"/><circle cx="156" cy="284" r="1.90" fill="#b36bff" opacity="0.57"/><circle cx="193" cy="37" r="0.80" fill="#ffffff" opacity="0.33"/><circle cx="230" cy="90" r="1.35" fill="#4efcff" opacity="0.49"/><circle cx="267" cy="143" r="1.90" fill="#ff7a18" opacity="0.25"/><circle cx="304" cy="196" r="0.80" fill="#b36bff" opacity="0.41"/><circle cx="41" cy="249" r="1.35" fill="#ffffff" opacity="0.57"/><circle cx="78" cy="302" r="1.90" fill="#4efcff" opacity="0.33"/><circle cx="115" cy="55" r="0.80" fill="#ff7a18" opacity="0.49"/>
  <!-- orbit rings -->
  <ellipse cx="160.0" cy="160.0" rx="92" ry="74" fill="none" stroke="#4efcff" stroke-opacity="0.18" stroke-width="1.5" stroke-dasharray="4 6"/>
  <ellipse cx="160.0" cy="160.0" rx="72" ry="60" fill="none" stroke="#ff8c00" stroke-opacity="0.12" stroke-width="1"/>
  <!-- HUD ticks -->
  <line x1="252.00" y1="160.00" x2="270.00" y2="160.00" stroke="#4efcff" stroke-opacity="0.35" stroke-width="1.2"/><line x1="245.00" y1="195.21" x2="261.63" y2="202.10" stroke="#4efcff" stroke-opacity="0.35" stroke-width="1.2"/><line x1="225.05" y1="225.05" x2="237.78" y2="237.78" stroke="#4efcff" stroke-opacity="0.35" stroke-width="1.2"/><line x1="195.21" y1="245.00" x2="202.10" y2="261.63" stroke="#4efcff" stroke-opacity="0.35" stroke-width="1.2"/><line x1="160.00" y1="252.00" x2="160.00" y2="270.00" stroke="#4efcff" stroke-opacity="0.35" stroke-width="1.2"/><line x1="124.79" y1="245.00" x2="117.90" y2="261.63" stroke="#4efcff" stroke-opacity="0.35" stroke-width="1.2"/><line x1="94.95" y1="225.05" x2="82.22" y2="237.78" stroke="#4efcff" stroke-opacity="0.35" stroke-width="1.2"/><line x1="75.00" y1="195.21" x2="58.37" y2="202.10" stroke="#4efcff" stroke-opacity="0.35" stroke-width="1.2"/><line x1="68.00" y1="160.00" x2="50.00" y2="160.00" stroke="#4efcff" stroke-opacity="0.35" stroke-width="1.2"/><line x1="75.00" y1="124.79" x2="58.37" y2="117.90" stroke="#4efcff" stroke-opacity="0.35" stroke-width="1.2"/><line x1="94.95" y1="94.95" x2="82.22" y2="82.22" stroke="#4efcff" stroke-opacity="0.35" stroke-width="1.2"/><line x1="124.79" y1="75.00" x2="117.90" y2="58.37" stroke="#4efcff" stroke-opacity="0.35" stroke-width="1.2"/><line x1="160.00" y1="68.00" x2="160.00" y2="50.00" stroke="#4efcff" stroke-opacity="0.35" stroke-width="1.2"/><line x1="195.21" y1="75.00" x2="202.10" y2="58.37" stroke="#4efcff" stroke-opacity="0.35" stroke-width="1.2"/><line x1="225.05" y1="94.95" x2="237.78" y2="82.22" stroke="#4efcff" stroke-opacity="0.35" stroke-width="1.2"/><line x1="245.00" y1="124.79" x2="261.63" y2="117.90" stroke="#4efcff" stroke-opacity="0.35" stroke-width="1.2"/>
  <!-- center sphere -->
  <circle cx="160.0" cy="160.0" r="22" fill="#0b1a3a" stroke="#4efcff" stroke-opacity="0.5" stroke-width="1.8"/>
  <circle cx="160.0" cy="160.0" r="8" fill="#4efcff" opacity="0.18"/>
  <text x="160.0" y="164.0" text-anchor="middle" font-family="monospace" font-size="7" fill="#4efcff" opacity="0.7">CORE</text>
  <!-- orbiting dot (SMIL) -->
  <circle cx="252.00" cy="160.00" r="5.5" fill="#4efcff" filter="url(#glow4)">
    <animateTransform attributeName="transform" type="rotate"
      from="0 160.0 160.0" to="360 160.0 160.0"
      dur="3.35s" repeatCount="indefinite"/>
  </circle>
  <!-- data bars -->
  <rect x="26" y="252" width="8" height="18" fill="#4efcff" opacity="0.18" rx="1"/><rect x="40" y="264" width="8" height="6" fill="#4efcff" opacity="0.25" rx="1"/><rect x="54" y="255" width="8" height="15" fill="#4efcff" opacity="0.32" rx="1"/><rect x="68" y="246" width="8" height="24" fill="#4efcff" opacity="0.39" rx="1"/><rect x="82" y="258" width="8" height="12" fill="#4efcff" opacity="0.18" rx="1"/><rect x="96" y="249" width="8" height="21" fill="#4efcff" opacity="0.25" rx="1"/><rect x="110" y="261" width="8" height="9" fill="#4efcff" opacity="0.32" rx="1"/><rect x="124" y="252" width="8" height="18" fill="#4efcff" opacity="0.39" rx="1"/><rect x="138" y="264" width="8" height="6" fill="#4efcff" opacity="0.18" rx="1"/>
  <!-- label -->
  <text x="10" y="14" font-family="monospace" font-size="9" fill="#ff8c00" opacity="0.7">SYS-04</text>
  <text x="10" y="26" font-family="monospace" font-size="7" fill="#4efcff" opacity="0.45">LINUXIA · HUB</text>
</svg>