<?xml version="1.0" encoding="UTF-8"?>
<svg xmlns="http://www.w3.org/2000/svg" width="320" height="320" viewBox="0 0 320 320">
  <defs>
    <linearGradient id="bg2" x1="0" y1="0" x2="1" y2="1">
      <stop offset="0" stop-color="#050713"/>
      <stop offset="1" stop-color="#0b1430"/>
    </linearGradient>
    <pattern id="grid2" patternUnits="userSpaceOnUse" width="28" height="28">
      <path d="M28 0H0V28" fill="none" stroke="#7aa7ff" stroke-opacity="0.09" stroke-width="1"/>
    </pattern>
    <pattern id="scan2" patternUnits="userSpaceOnUse" width="6" height="6">
      <rect width="6" height="6" fill="none"/>
      <rect y="0" width="6" height="1" fill="#ffffff" opacity="0.260"/>
    </pattern>
    <filter id="glow2" x="-40%" y="-40%" width="180%" height="180%">
      <feGaussianBlur stdDeviation="3.8" result="b"/>
      <feComposite in="b" in2="SourceGraphic" operator="over"/>
    </filter>
  </defs>
  <!-- background -->
  <rect width="320" height="320" fill="url(#bg2)"/>
  <rect width="320" height="320" fill="url(#grid2)"/>
  <rect width="320" height="320" fill="url(#scan2)"/>
  <!-- stars -->
  <circle cx="48" cy="32" r="1.90" fill="#b36bff" opacity="0.41"/><circle cx="85" cy="85" r="0.80" fill="#ffffff" opacity="0.57"/><circle cx="122" cy="138" r="1.35" fill="#4efcff" opacity="0.33"/><circle cx="159" cy="191" r="1.90" fill="#ff7a18" opacity="0.49"/><circle cx="196" cy="244" r="0.80" fill="#b36bff" opacity="0.25"/><circle cx="233" cy="297" r="1.35" fill="#ffffff" opacity="0.41"/><circle cx="270" cy="50" r="1.90" fill="#4efcff" opacity="0.57"/><circle cx="307" cy="103" r="0.80" fill="#ff7a18" opacity="0.33"/><circle cx="44" cy="156" r="1.35" fill="#b36bff" opacity="0.49"/><circle cx="81" cy="209" r="1.90" fill="#ffffff" opacity="0.25"/><circle cx="118" cy="262" r="0.80" fill="#4efcff" opacity="0.41"/><circle cx="155" cy="15" r="1.35" fill="#ff7a18" opacity="0.57"/><circle cx="192" cy="68" r="1.90" fill="#b36bff" opacity="0.33"/><circle cx="229" cy="121" r="0.80" fill="#ffffff" opacity="0.49"/><circle cx="266" cy="174" r="1.35" fill="#4efcff" opacity="0.25"/><circle cx="303" cy="227" r="1.90" fill="#ff7a18" opacity="0.41"/><circle cx="40" cy="280" r="0.80" fill="#b36bff" opacity="0.57"/><circle cx="77" cy="33" r="1.35" fill="#ffffff" opacity="0.33"/>
  <!-- orbit rings -->
  <ellipse cx="160.0" cy="160.0" rx="108" ry="84" fill="none" stroke="#4efcff" stroke-opacity="0.18" stroke-width="1.5" stroke-dasharray="4 6"/>
  <ellipse cx="160.0" cy="160.0" rx="88" ry="70" fill="none" stroke="#ff8c00" stroke-opacity="0.12" stroke-width="1"/>
  <!-- HUD ticks -->
  <line x1="248.00" y1="160.00" x2="266.00" y2="160.00" stroke="#4efcff" stroke-opacity="0.35" stroke-width="1.2"/><line x1="241.30" y1="193.68" x2="257.93" y2="200.56" stroke="#4efcff" stroke-opacity="0.35" stroke-width="1.2"/><line x1="222.23" y1="222.23" x2="234.95" y2="234.95" stroke="#4efcff" stroke-opacity="0.35" stroke-width="1.2"/><line x1="193.68" y1="241.30" x2="200.56" y2="257.93" stroke="#4efcff" stroke-opacity="0.35" stroke-width="1.2"/><line x1="160.00" y1="248.00" x2="160.00" y2="266.00" stroke="#4efcff" stroke-opacity="0.35" stroke-width="1.2"/><line x1="126.32" y1="241.30" x2="119.44" y2="257.93" stroke="#4efcff" stroke-opacity="0.35" stroke-width="1.2"/><line x1="97.77" y1="222.23" x2="85.05" y2="234.95" stroke="#4efcff" stroke-opacity="0.35" stroke-width="1.2"/><line x1="78.70" y1="193.68" x2="62.07" y2="200.56" stroke="#4efcff" stroke-opacity="0.35" stroke-width="1.2"/><line x1="72.00" y1="160.00" x2="54.00" y2="160.00" stroke="#4efcff" stroke-opacity="0.35" stroke-width="1.2"/><line x1="78.70" y1="126.32" x2="62.07" y2="119.44" stroke="#4efcff" stroke-opacity="0.35" stroke-width="1.2"/><line x1="97.77" y1="97.77" x2="85.05" y2="85.05" stroke="#4efcff" stroke-opacity="0.35" stroke-width="1.2"/><line x1="126.32" y1="78.70" x2="119.44" y2="62.07" stroke="#4efcff" stroke-opacity="0.35" stroke-width="1.2"/><line x1="160.00" y1="72.00" x2="160.00" y2="54.00" stroke="#4efcff" stroke-opacity="0.35" stroke-width="1.2"/><line x1="193.68" y1="78.70" x2="200.56" y2="62.07" stroke="#4efcff" stroke-opacity="0.35" stroke-width="1.2"/><line x1="222.23" y1="97.77" x2="234.95" y2="85.05" stroke="#4efcff" stroke-opacity="0.35" stroke-width="1.2"/><line x1="241.30" y1="126.32" x2="257.93" y2="119.44" stroke="#4efcff" stroke-opacity="0.35" stroke-width="1.2"/>
  <!-- center sphere -->
  <circle cx="160.0" cy="160.0" r="22" fill="#0b1a3a" stroke="#4efcff" stroke-opacity="0.5" stroke-width="1.8"/>
  <circle cx="160.0" cy="160.0" r="8" fill="#4efcff" opacity="0.18"/>
  <text x="160.0" y="164.0" text-anchor="middle" font-family="monospace" font-size="7" fill="#4efcff" opacity="0.7">CORE</text>
  <!-- orbiting dot (SMIL) -->
  <circle cx="268.00" cy="160.00" r="5.5" fill="#4efcff" filter="url(#glow2)">
    <animateTransform attributeName="transform" type="rotate"
      from="0 160.0 160.0" to="360 160.0 160.0"
      dur="3.90s" repeatCount="indefinite"/>
  </circle>
  <!-- data bars -->
  <rect x="26" y="258" width="8" height="12" fill="#4efcff" opacity="0.32" rx="1"/><rect x="40" y="249" width="8" height="21" fill="#4efcff" opacity="0.39" rx="1"/><rect x="54" y="261" width="8" height="9" fill="#4efcff" opacity="0.18" rx="1"/><rect x="68" y="252" width="8" height="18" fill="#4efcff" opacity="0.25" rx="1"/><rect x="82" y="264" width="8" height="6" fill="#4efcff" opacity="0.32" rx="1"/><rect x="96" y="255" width="8" height="15" fill="#4efcff" opacity="0.39" rx="1"/><rect x="110" y="246" width="8" height="24" fill="#4efcff" opacity="0.18" rx="1"/><rect x="124" y="258" width="8" height="12" fill="#4efcff" opacity="0.25" rx="1"/><rect x="138" y="249" width="8" height="21" fill="#4efcff" opacity="0.32" rx="1"/>
  <!-- label -->
  <text x="10" y="14" font-family="monospace" font-size="9" fill="#ff8c00" opacity="0.7">SYS-02</text>
  <text x="10" y="26" font-family="monospace" font-size="7" fill="#4efcff" opacity="0.45">LINUXIA · HUB</text>
</svg>