<svg width="980" height="140" viewBox="0 0 980 140" xmlns="http://www.w3.org/2000/svg" role="img" aria-label="LinuxIA signals and orchestration trace">
  <defs>
    <linearGradient id="mx" x1="0" y1="0" x2="1" y2="0">
      <stop offset="0" stop-color="#00ff9d" stop-opacity="0.0"/>
      <stop offset="0.25" stop-color="#00ff9d" stop-opacity="0.55"/>
      <stop offset="0.65" stop-color="#ff7a18" stop-opacity="0.60"/>
      <stop offset="1" stop-color="#ff7a18" stop-opacity="0.0"/>
    </linearGradient>
    <style>
      .wire { fill: none; stroke: #ffffff; stroke-opacity: .10; stroke-width: 1; }
      .flow { fill: none; stroke: url(#mx); stroke-width: 2; stroke-linecap: round; stroke-dasharray: 40 940; animation: f 3.4s linear infinite; }
      .dot  { fill: #ff7a18; opacity: .9; animation: p 1.6s ease-in-out infinite; transform-origin: 50% 50%; }
      .lbl  { font: 600 12px ui-monospace, SFMono-Regular, Menlo, Monaco, Consolas, "Liberation Mono", "Courier New", monospace; fill: #c9d1d9; opacity: .85; }
      @keyframes f { from { stroke-dashoffset: 980; } to { stroke-dashoffset: 0; } }
      @keyframes p { 0%,100% { transform: scale(1); opacity:.55 } 50% { transform: scale(1.2); opacity:1 } }
    </style>
  </defs>

  <rect x="0" y="0" width="980" height="140" rx="18" fill="#0b0f14"/>
  <path class="wire" d="M60 70 C210 20, 320 20, 420 70 C520 120, 620 120, 740 70 C860 20, 910 40, 940 70"/>
  <path class="flow" d="M60 70 C210 20, 320 20, 420 70 C520 120, 620 120, 740 70 C860 20, 910 40, 940 70"/>

  <circle class="dot" cx="60" cy="70" r="4"/>
  <circle class="dot" cx="420" cy="70" r="4" style="animation-delay:.25s"/>
  <circle class="dot" cx="740" cy="70" r="4" style="animation-delay:.5s"/>
  <circle class="dot" cx="940" cy="70" r="4" style="animation-delay:.75s"/>

  <text class="lbl" x="44" y="28">L0: Proxmox</text>
  <text class="lbl" x="392" y="28">L1: VM100 Usine</text>
  <text class="lbl" x="700" y="28">L2: Outils</text>
  <text class="lbl" x="898" y="28">L3: Workers</text>

  <text class="lbl" x="44" y="120" opacity=".75">RAM tmpfs → NVMe → SATA • zRAM • Templates • Agents • Logs</text>
</svg>
